<svg version="1.2" baseProfile="tiny-ps" xmlns="http://www.w3.org/2000/svg" viewBox="0 0 3076 837" width="3076" height="837">
	<title>logo</title>
	<defs>
		<clipPath clipPathUnits="userSpaceOnUse" id="cp1">
			<path d="M232.5 626.4L232.5 276.5L232.5 626.4Z" />
		</clipPath>
		<clipPath clipPathUnits="userSpaceOnUse" id="cp2">
			<path d="M254.6 231.9L429.7 230.5L429.7 444.1" />
		</clipPath>
		<clipPath clipPathUnits="userSpaceOnUse" id="cp3">
			<path d="M358.6 159.9L500.8 161.5L500.4 321.1" />
		</clipPath>
	</defs>
	<style>
		tspan { white-space:pre }
		.shp0 { fill: #000000 } 
		.shp1 { fill: none;stroke: #000000;stroke-width: 30 } 
		.shp2 { fill: #18abff } 
		.shp3 { fill: #71c6f5 } 
		.shp4 { fill: none } 
		.txt5 { font-size: 13px;fill: #000000;font-weight: 400;font-family: "LiberationSans", "Liberation Sans" } 
		.shp6 { fill: #ffffff } 
	</style>
	<g id="Square">
		<g id="Clip-Path: Square1" clip-path="url(#cp1)">
			<path id="Square1" class="shp0" d="M97.2 283.8L367.8 283.8L367.8 612.6L97.2 612.6L97.2 283.8Z" />
		</g>
		<path id="OuterBorder" class="shp1" d="M112.5 299.2L352.5 299.2L352.5 597.2L112.5 597.2L112.5 299.2Z" />
		<g id="Clip-Path: Square2" clip-path="url(#cp2)">
			<path id="Square2" class="shp2" d="M451.8 213L451.8 430.5L403.4 430.5L403.4 252L265.5 251.5L265.6 211.6L451.8 212.2L451.7 213L451.8 213Z" />
		</g>
		<g id="Clip-Path: Square3" clip-path="url(#cp3)">
			<path id="Square3" class="shp3" d="M516.2 148.8L516.2 299.2L482.8 299.2L482.8 175.7L387.4 175.4L387.5 147.8L516.2 148.2L516.2 148.8L516.2 148.8Z" />
		</g>
	</g>
	<g id="Words">
		<path id="Layer" class="shp4" d="M507.3 408.2L3117.3 408.2L3117.3 986.4L507.3 986.4L507.3 408.2Z" />
		<text id="TradeMarkers" style="transform: matrix(1,0,0,1,507.348,612.825)" >
			<tspan x="0" y="0" class="txt5">TradeMarkers
</tspan>
		</text>
		<g id="Letters">
			<path id="Letter1" class="shp6" d="M704.3 417.6C704.3 428.8 704.6 438 705.3 445.2L697.6 445.2C695.8 427.9 693.6 415.1 690.9 406.7C688.2 398.3 683.5 392.1 676.8 388.2C670.1 384.3 659.7 382.3 645.8 382.3L627.6 382.3L627.6 573.8C627.6 583.2 628.5 590.1 630.3 594.3C632.1 598.6 635.2 601.5 639.7 603.1C644.2 604.7 651.5 605.7 661.6 606.1L661.6 612.8C649.9 612.1 633.4 611.8 612.1 611.8C589.7 611.8 573.1 612.1 562.3 612.8L562.3 606.1C572.4 605.7 579.7 604.6 584.2 603.1C588.7 601.5 591.8 598.6 593.6 594.3C595.4 590 596.3 583.2 596.3 573.8L596.3 382.2L578 382.2C564.1 382.2 553.8 384.2 547 388.1C540.3 392 535.6 398.2 532.9 406.6C530.2 415 528 427.9 526.2 445.1L518.5 445.1C519.2 437.9 519.5 428.7 519.5 417.5C519.5 404.7 518.7 390.3 517.1 374.4C535.7 375.1 567.4 375.4 612 375.4C656.4 375.4 688 375.1 706.6 374.4C705.1 390.4 704.3 404.8 704.3 417.6Z" />
			<path id="Letter2" fill-rule="evenodd" class="shp0" d="M921.7 598.7C917.4 604.8 912.6 609.4 907.1 612.7C901.6 615.9 895 617.6 887.4 617.6C868.5 617.6 857 609.1 852.7 592L842.3 549.9C839.2 537.3 834.5 528.9 828.3 524.7C822.1 520.4 813 518.3 800.9 518.3L781.7 518.3L781.7 577.2C781.7 585.7 782.4 591.9 783.7 595.7C785 599.5 787.6 602.1 791.3 603.4C795 604.7 800.9 605.6 809 606.1L809 612.8C798.7 612.1 784.4 611.8 766.2 611.8C746.9 611.8 732.5 612.1 723.1 612.8L723.1 606.1C731.2 605.7 737.1 604.8 740.8 603.4C744.5 602.1 747 599.5 748.4 595.7C749.7 591.9 750.4 585.7 750.4 577.2L750.4 443.8C750.4 435.3 749.7 429.1 748.4 425.3C747.1 421.5 744.5 418.9 740.8 417.6C737.1 416.3 731.2 415.4 723.1 414.9L723.1 408.2C732.5 408.9 746.2 409.2 764.2 409.2L798.5 408.9C802.3 408.7 806.7 408.6 811.6 408.6C836.7 408.6 856 413.3 869.3 422.7C882.6 432.1 889.3 444.4 889.3 459.4C889.3 472.4 884.1 484.3 873.6 495.1C863.2 505.9 846 512.7 822.3 515.6C826.8 516.1 830.6 516.5 833.7 516.9C845.6 518.7 855 522.3 862 527.7C869 533.1 873.9 541.7 876.8 553.6L884.2 584.2C886 592.1 888 597.6 890.1 600.9C892.2 604.2 895 605.8 898.3 605.8C903.9 605.8 910.1 602 916.8 594.4L921.7 598.7ZM789.6 417.2C786.6 418.8 784.5 421.6 783.4 425.6C782.3 429.6 781.7 435.7 781.7 443.8L781.7 511.5L804.3 511.5C824 511.5 837.6 507.3 844.9 498.9C852.2 490.5 855.8 478.5 855.8 463C855.8 446.8 851.7 434.8 843.5 426.8C835.3 418.8 821.9 414.8 803.3 414.8C797.2 414.9 792.6 415.7 789.6 417.2Z" />
			<path id="Letter3" fill-rule="evenodd" class="shp0" d="M1120 606.1L1120 612.8C1111 612.1 1099 611.8 1084 611.8C1064.7 611.8 1050.3 612.1 1040.9 612.8L1040.9 606.1C1049.2 605.7 1055.3 604.5 1059.2 602.7C1063.1 600.9 1065.1 597.9 1065.1 593.6C1065.1 590 1063.5 584.7 1060.4 577.8L1043.2 539.4L961.4 539.4L950 564.7C946.2 573.5 944.3 580.6 944.3 586.2C944.3 592 946.4 596.6 950.5 599.8C954.6 603.1 961.3 605.1 970.5 606L970.5 612.7C963.8 612 953.6 611.7 939.9 611.7C926.2 611.7 916.4 612 910.6 612.7L910.6 606C916.7 604.4 921.8 601 926.1 595.7C930.4 590.4 934.4 583.4 938.2 574.7L1012.6 406.4L1018 406.4L1096.8 584.5C1102.8 598.5 1110.6 605.6 1120 606.1ZM1040.6 532.7L1002.6 447.2L964.2 532.7L1040.6 532.7Z" />
			<path id="Letter4" fill-rule="evenodd" class="shp0" d="M1296.6 433.6C1314.2 450.5 1323 475.3 1323 507.8C1323 528.9 1318.7 547.4 1310.2 563.2C1301.7 579 1289.3 591.3 1273 599.9C1256.7 608.5 1237.3 612.9 1214.6 612.9L1195.1 612.6C1182.5 612.2 1173.3 611.9 1167.5 611.9C1149.1 611.9 1135.2 612.2 1125.8 612.9L1125.8 606.2C1133.9 605.8 1139.8 604.9 1143.5 603.5C1147.2 602.2 1149.7 599.6 1151.1 595.8C1152.4 592 1153.1 585.8 1153.1 577.3L1153.1 443.8C1153.1 435.3 1152.4 429.1 1151.1 425.3C1149.8 421.5 1147.2 418.9 1143.5 417.6C1139.8 416.3 1133.9 415.4 1125.8 414.9L1125.8 408.2C1133.7 408.9 1144.5 409.2 1158.5 409.2L1187.1 408.9C1202.4 408.5 1212.6 408.2 1217.7 408.2C1252.6 408.2 1278.9 416.6 1296.6 433.6ZM1193.5 416.6C1190 418.2 1187.6 421 1186.3 425C1185 429 1184.3 435.1 1184.3 443.2L1184.3 577.9C1184.3 586 1185 592 1186.3 596.1C1187.6 600.1 1190.1 602.9 1193.5 604.5C1197 606.1 1202.3 606.9 1209.5 606.9C1229.9 606.9 1246 603.3 1257.6 596C1269.3 588.7 1277.5 578 1282.2 563.9C1286.9 549.8 1289.3 531.6 1289.3 509.4C1289.3 476.6 1283.2 452.6 1271.1 437.4C1259 422.1 1238.3 414.5 1209.2 414.5C1202.2 414.2 1197 415 1193.5 416.6Z" />
			<path id="Letter5" class="shp0" d="M1513.2 612.8C1498.6 612.1 1474 611.8 1439.5 611.8C1398 611.8 1366.6 612.1 1345.2 612.8L1345.2 606.1C1353.3 605.7 1359.2 604.8 1362.9 603.4C1366.6 602.1 1369.1 599.5 1370.5 595.7C1371.8 591.9 1372.5 585.7 1372.5 577.2L1372.5 443.8C1372.5 435.3 1371.8 429.1 1370.5 425.3C1369.2 421.5 1366.6 418.9 1362.9 417.6C1359.2 416.3 1353.3 415.4 1345.2 414.9L1345.2 408.2C1366.5 408.9 1397.9 409.2 1439.5 409.2C1470.9 409.2 1493.2 408.9 1506.5 408.2C1504.9 421.7 1504.1 433.8 1504.1 444.6C1504.1 453.4 1504.4 460.3 1505.1 465.5L1497.4 465.5C1495.8 447.1 1492 434.3 1485.8 427C1479.6 419.7 1469.6 416.1 1455.7 416.1L1431 416.1C1422.9 416.1 1417 416.7 1413.3 418C1409.6 419.2 1407.1 421.8 1405.7 425.6C1404.4 429.4 1403.7 435.6 1403.7 444.1L1403.7 506.7L1431.6 506.7C1438.8 506.7 1444.3 504.8 1448.1 501.1C1451.9 497.4 1454.5 493.4 1455.8 489C1457.1 484.6 1458.4 479.1 1459.5 472.3L1467.2 472.3C1466.5 479.9 1466.2 488.2 1466.2 497.2L1466.2 510C1466.2 518.8 1466.9 531.3 1468.2 547.7L1460.5 547.7C1459.2 536.9 1456.6 528.5 1452.8 522.5C1449 516.4 1441.9 513.4 1431.6 513.4L1403.7 513.4L1403.7 577.4C1403.7 585.9 1404.4 592.1 1405.7 595.9C1407 599.7 1409.6 602.2 1413.3 603.5C1417 604.7 1422.9 605.4 1431 605.4L1455.6 605.4C1466.8 605.4 1475.7 603.6 1482.2 600C1488.7 596.4 1493.6 590.6 1497 582.7C1500.4 574.7 1502.7 563.6 1504.1 549.2L1511.8 549.2C1511.1 555.3 1510.8 563.3 1510.8 573.4C1510.8 584.8 1511.6 598 1513.2 612.8Z" />
			<path id="Letter6" class="shp0" d="M1785.3 383.9C1781.6 385.2 1779.1 387.8 1777.7 391.6C1776.4 395.4 1775.7 401.6 1775.7 410.1L1775.7 577.1C1775.7 585.6 1776.4 591.8 1777.7 595.6C1779 599.4 1781.6 602 1785.3 603.3C1789 604.6 1794.9 605.5 1803 606L1803 612.7C1792.7 612 1778.4 611.7 1760.2 611.7C1740.9 611.7 1726.5 612 1717.1 612.7L1717.1 606C1725.2 605.6 1731.1 604.7 1734.8 603.3C1738.5 601.9 1741 599.4 1742.4 595.6C1743.7 591.8 1744.4 585.6 1744.4 577.1L1744.4 396.7L1663.3 614.5L1657.9 614.5L1573.1 396L1573.1 573.7C1573.1 582.5 1573.8 589 1575.3 593.2C1576.8 597.5 1579.6 600.6 1583.9 602.5C1588.2 604.4 1594.8 605.6 1603.8 606L1603.8 612.7C1595.7 612 1584.3 611.7 1569.5 611.7C1556 611.7 1545.6 612 1538.2 612.7L1538.2 606C1546.1 605.6 1551.9 604.4 1555.7 602.5C1559.5 600.6 1562.1 597.5 1563.4 593.1C1564.7 588.7 1565.4 582.3 1565.4 573.7L1565.4 410.2C1565.4 401.7 1564.7 395.5 1563.4 391.7C1562.1 387.9 1559.5 385.3 1555.8 384C1552.1 382.7 1546.2 381.8 1538.1 381.3L1538.1 374.6C1545.5 375.3 1555.9 375.6 1569.4 375.6C1581.1 375.6 1590.6 375.3 1598 374.6L1672.1 569.5L1744.5 375.6L1760.3 375.6C1778.5 375.6 1792.7 375.3 1803.1 374.6L1803.1 381.3C1794.9 381.7 1789 382.6 1785.3 383.9Z" />
			<path id="Letter7" fill-rule="evenodd" class="shp0" d="M2018.1 606.1L2018.1 612.8C2009.1 612.1 1997.1 611.8 1982.1 611.8C1962.8 611.8 1948.4 612.1 1939 612.8L1939 606.1C1947.3 605.7 1953.4 604.5 1957.3 602.7C1961.2 600.9 1963.2 597.9 1963.2 593.6C1963.2 590 1961.6 584.7 1958.5 577.8L1941.3 539.4L1859.5 539.4L1848.1 564.6C1844.3 573.4 1842.4 580.5 1842.4 586.1C1842.4 591.9 1844.5 596.5 1848.6 599.7C1852.8 603 1859.4 605 1868.6 605.9L1868.6 612.6C1861.9 611.9 1851.7 611.6 1838 611.6C1824.3 611.6 1814.5 611.9 1808.7 612.6L1808.7 605.9C1814.8 604.3 1819.9 600.9 1824.2 595.6C1828.5 590.3 1832.5 583.3 1836.3 574.6L1910.7 406.3L1916.1 406.3L1994.9 584.4C2000.9 598.5 2008.7 605.6 2018.1 606.1ZM1938.7 532.7L1900.7 447.2L1862.3 532.7L1938.7 532.7Z" />
			<path id="Letter8" fill-rule="evenodd" class="shp0" d="M2222.4 598.7C2218.1 604.8 2213.3 609.4 2207.8 612.7C2202.3 615.9 2195.7 617.6 2188.1 617.6C2169.2 617.6 2157.7 609.1 2153.4 592L2143 549.9C2139.9 537.3 2135.2 528.9 2129 524.7C2122.8 520.4 2113.7 518.3 2101.6 518.3L2082.4 518.3L2082.4 577.2C2082.4 585.7 2083.1 591.9 2084.4 595.7C2085.7 599.5 2088.3 602.1 2092 603.4C2095.7 604.7 2101.6 605.6 2109.7 606.1L2109.7 612.8C2099.4 612.1 2085.1 611.8 2066.9 611.8C2047.6 611.8 2033.2 612.1 2023.8 612.8L2023.8 606.1C2031.9 605.7 2037.8 604.8 2041.5 603.4C2045.2 602.1 2047.7 599.5 2049.1 595.7C2050.4 591.9 2051.1 585.7 2051.1 577.2L2051.1 443.8C2051.1 435.3 2050.4 429.1 2049.1 425.3C2047.8 421.5 2045.2 418.9 2041.5 417.6C2037.8 416.3 2031.9 415.4 2023.8 414.9L2023.8 408.2C2033.2 408.9 2046.9 409.2 2064.9 409.2L2099.2 408.9C2103 408.7 2107.4 408.6 2112.3 408.6C2137.4 408.6 2156.7 413.3 2170 422.7C2183.3 432.1 2190 444.4 2190 459.4C2190 472.4 2184.8 484.3 2174.3 495.1C2163.9 505.9 2146.7 512.7 2123 515.6C2127.5 516.1 2131.3 516.5 2134.4 516.9C2146.3 518.7 2155.7 522.3 2162.7 527.7C2169.7 533.1 2174.6 541.7 2177.5 553.6L2184.9 584.2C2186.7 592.1 2188.7 597.6 2190.8 600.9C2192.9 604.2 2195.7 605.8 2199 605.8C2204.6 605.8 2210.8 602 2217.5 594.4L2222.4 598.7ZM2090.3 417.2C2087.3 418.8 2085.2 421.6 2084.1 425.6C2083 429.6 2082.4 435.7 2082.4 443.8L2082.4 511.5L2105 511.5C2124.7 511.5 2138.3 507.3 2145.6 498.9C2152.9 490.5 2156.5 478.5 2156.5 463C2156.5 446.8 2152.4 434.8 2144.2 426.8C2136 418.8 2122.6 414.8 2104 414.8C2097.9 414.9 2093.3 415.7 2090.3 417.2Z" />
			<path id="Letter9" class="shp0" d="M2429.1 606.1L2429.1 612.8C2418.3 612.1 2405.8 611.8 2391.4 611.8C2376.1 611.8 2361.9 612.1 2348.6 612.8L2348.6 606.1C2355.8 605.9 2360.9 605.3 2364.1 604.2C2367.2 603.2 2368.8 601.7 2368.8 599.7C2368.8 597.5 2367.3 594.5 2364.4 590.9L2319.6 528.6C2315.1 522.3 2310.4 517.8 2305.5 515C2300.6 512.2 2293.7 510.7 2285 510.5L2285 577.2C2285 585.7 2285.7 591.9 2287 595.7C2288.3 599.5 2290.9 602.1 2294.6 603.4C2298.3 604.7 2304.2 605.6 2312.3 606.1L2312.3 612.8C2302 612.1 2287.7 611.8 2269.5 611.8C2250.2 611.8 2235.8 612.1 2226.4 612.8L2226.4 606.1C2234.5 605.7 2240.4 604.8 2244.1 603.4C2247.8 602.1 2250.3 599.5 2251.7 595.7C2253 591.9 2253.7 585.7 2253.7 577.2L2253.7 443.8C2253.7 435.3 2253 429.1 2251.7 425.3C2250.4 421.5 2247.8 418.9 2244.1 417.6C2240.4 416.3 2234.5 415.4 2226.4 414.9L2226.4 408.2C2235.8 408.9 2250.2 409.2 2269.5 409.2C2287.5 409.2 2301.7 408.9 2312.3 408.2L2312.3 414.9C2304.2 415.4 2298.3 416.2 2294.6 417.6C2290.9 418.9 2288.4 421.5 2287 425.3C2285.7 429.1 2285 435.3 2285 443.8L2285 504.7C2292.9 504.3 2300.3 502.4 2307.2 499.1C2314.2 495.9 2321.8 490.2 2330.1 482.1L2370.2 441C2376 435.6 2379 430.6 2379 425.9C2379 422.5 2377.3 419.8 2374 417.8C2370.6 415.8 2365.7 414.7 2359.2 414.4L2359.2 408C2371.3 408.7 2384.6 409 2398.9 409C2408.5 409 2416.5 408.7 2422.8 408L2422.8 414.4C2414.7 416 2408 418.3 2402.6 421.5C2397.2 424.6 2390.3 430.4 2381.7 438.7L2328.9 491.6L2403 585.5C2410.7 595.4 2419.5 602.3 2429.1 606.1Z" />
			<path id="Letter10" class="shp0" d="M2607.2 612.8C2592.6 612.1 2568 611.8 2533.5 611.8C2492 611.8 2460.6 612.1 2439.2 612.8L2439.2 606.1C2447.3 605.7 2453.2 604.8 2456.9 603.4C2460.6 602.1 2463.1 599.5 2464.5 595.7C2465.8 591.9 2466.5 585.7 2466.5 577.2L2466.5 443.8C2466.5 435.3 2465.8 429.1 2464.5 425.3C2463.2 421.5 2460.6 418.9 2456.9 417.6C2453.2 416.3 2447.3 415.4 2439.2 414.9L2439.2 408.2C2460.5 408.9 2491.9 409.2 2533.5 409.2C2564.9 409.2 2587.2 408.9 2600.5 408.2C2598.9 421.7 2598.1 433.8 2598.1 444.6C2598.1 453.4 2598.4 460.3 2599.1 465.5L2591.4 465.5C2589.8 447.1 2586 434.3 2579.8 427C2573.6 419.7 2563.6 416.1 2549.7 416.1L2525.1 416.1C2517 416.1 2511.1 416.7 2507.4 418C2503.7 419.2 2501.2 421.8 2499.8 425.6C2498.5 429.4 2497.8 435.6 2497.8 444.1L2497.8 506.7L2525.7 506.7C2532.9 506.7 2538.4 504.8 2542.2 501.1C2546 497.4 2548.6 493.4 2549.9 489C2551.2 484.6 2552.5 479.1 2553.6 472.3L2561.3 472.3C2560.6 479.9 2560.3 488.2 2560.3 497.2L2560.3 510C2560.3 518.8 2561 531.3 2562.3 547.7L2554.6 547.7C2553.3 536.9 2550.7 528.5 2546.9 522.5C2543.1 516.4 2536 513.4 2525.7 513.4L2497.8 513.4L2497.8 577.4C2497.8 585.9 2498.5 592.1 2499.8 595.9C2501.1 599.7 2503.7 602.2 2507.4 603.5C2511.1 604.7 2517 605.4 2525.1 605.4L2549.7 605.4C2560.9 605.4 2569.8 603.6 2576.3 600C2582.8 596.4 2587.7 590.6 2591.1 582.7C2594.5 574.7 2596.8 563.6 2598.2 549.2L2605.9 549.2C2605.2 555.3 2604.9 563.3 2604.9 573.4C2604.8 584.8 2605.6 598 2607.2 612.8Z" />
			<path id="Letter11" fill-rule="evenodd" class="shp0" d="M2830.7 598.7C2826.4 604.8 2821.6 609.4 2816.1 612.7C2810.6 615.9 2804 617.6 2796.4 617.6C2777.5 617.6 2766 609.1 2761.7 592L2751.3 549.9C2748.2 537.3 2743.5 528.9 2737.3 524.7C2731.1 520.4 2722 518.3 2709.9 518.3L2690.7 518.3L2690.7 577.2C2690.7 585.7 2691.4 591.9 2692.7 595.7C2694 599.5 2696.6 602.1 2700.3 603.4C2704 604.7 2709.9 605.6 2718 606.1L2718 612.8C2707.7 612.1 2693.4 611.8 2675.2 611.8C2655.9 611.8 2641.5 612.1 2632.1 612.8L2632.1 606.1C2640.2 605.7 2646.1 604.8 2649.8 603.4C2653.5 602.1 2656 599.5 2657.4 595.7C2658.7 591.9 2659.4 585.7 2659.4 577.2L2659.4 443.8C2659.4 435.3 2658.7 429.1 2657.4 425.3C2656.1 421.5 2653.5 418.9 2649.8 417.6C2646.1 416.3 2640.2 415.4 2632.1 414.9L2632.1 408.2C2641.5 408.9 2655.2 409.2 2673.2 409.2L2707.5 408.9C2711.3 408.7 2715.7 408.6 2720.6 408.6C2745.7 408.6 2765 413.3 2778.3 422.7C2791.6 432.1 2798.3 444.4 2798.3 459.4C2798.3 472.4 2793.1 484.3 2782.6 495.1C2772.2 505.9 2755 512.7 2731.3 515.6C2735.8 516.1 2739.6 516.5 2742.7 516.9C2754.6 518.7 2764 522.3 2771 527.7C2778 533.1 2782.9 541.7 2785.8 553.6L2793.2 584.2C2795 592.1 2797 597.6 2799.1 600.9C2801.2 604.2 2804 605.8 2807.3 605.8C2812.9 605.8 2819.1 602 2825.8 594.4L2830.7 598.7ZM2698.6 417.2C2695.6 418.8 2693.5 421.6 2692.4 425.6C2691.3 429.6 2690.7 435.7 2690.7 443.8L2690.7 511.5L2713.3 511.5C2733 511.5 2746.6 507.3 2753.9 498.9C2761.2 490.5 2764.8 478.5 2764.8 463C2764.8 446.8 2760.7 434.8 2752.5 426.8C2744.3 418.8 2730.9 414.8 2712.3 414.8C2706.2 414.9 2701.6 415.7 2698.6 417.2Z" />
			<path id="Letter12" class="shp0" d="M2930.2 406.6C2935.9 408.7 2941.8 411.8 2947.9 415.9C2952.8 419 2956.7 420.6 2959.3 420.6C2961.3 420.6 2962.9 419.4 2964 417.1C2965.1 414.7 2966 411 2966.7 405.8L2974.4 405.8C2973.3 417.5 2972.7 438.1 2972.7 467.7L2965 467.7C2963.7 451.5 2958.4 437.9 2949.3 426.6C2940.2 415.4 2927 409.8 2909.7 409.8C2897.8 409.8 2888 412.9 2880.2 419.2C2872.5 425.5 2868.6 433.5 2868.6 443.1C2868.6 450.1 2870.3 456.1 2873.8 461.3C2877.3 466.5 2881.8 470.9 2887.3 474.6C2892.8 478.3 2900.6 482.8 2910.7 488.2L2921.8 494.3C2935.7 501.7 2946.9 508.3 2955.3 514.2C2963.7 520 2970.5 526.7 2975.7 534.2C2980.9 541.7 2983.4 550.4 2983.4 560.3C2983.4 578.5 2976.8 592.6 2963.7 602.5C2950.6 612.5 2934.1 617.5 2914.4 617.5C2903.6 617.5 2894.8 616.4 2888 614.1C2881.2 611.9 2874.6 608.8 2868.3 605C2863.4 601.9 2859.5 600.3 2856.9 600.3C2854.9 600.3 2853.3 601.5 2852.2 603.8C2851.1 606.2 2850.2 609.9 2849.5 615.1L2841.8 615.1C2842.7 604.1 2843.1 579.4 2843.1 541L2850.8 541C2852.4 561.9 2858 578.7 2867.6 591.5C2877.2 604.3 2892.1 610.7 2912 610.7C2923.2 610.7 2932.9 607.5 2941.1 601.1C2949.3 594.7 2953.4 585.2 2953.4 572.7C2953.4 565.3 2951.3 558.7 2947 553C2942.7 547.3 2937 542.2 2929.8 537.7C2922.6 533.2 2912.6 527.6 2899.8 520.9C2881.4 511.5 2867.4 502 2857.7 492.6C2848 483.2 2843.2 470.9 2843.2 455.9C2843.2 439.3 2849.3 426.4 2861.5 417.2C2873.7 408 2888.7 403.4 2906.4 403.4C2916.7 403.4 2924.5 404.5 2930.2 406.6Z" />
		</g>
	</g>
</svg>