<svg width="5671" height="1201" viewBox="0 0 5671 1201" fill="none" xmlns="http://www.w3.org/2000/svg">
<path d="M1494.91 833.627C1474.49 846.104 1448.71 852.343 1417.52 852.343C1365.34 852.343 1325.68 832.793 1298.46 793.661C1271.27 754.528 1257.66 701.551 1257.66 634.628C1257.66 567.739 1271.27 514.729 1298.46 475.596C1325.68 436.497 1365.34 416.914 1417.52 416.914C1448.14 416.914 1472.49 422.719 1490.64 434.362C1508.79 445.971 1525.5 463.986 1540.81 488.373L1619.87 439.066C1599.46 402.802 1572.8 375.146 1539.94 356.163C1507.05 337.181 1466.25 327.673 1417.52 327.673C1378.95 327.673 1344.26 335.212 1313.34 350.225C1282.45 365.271 1256.09 386.355 1234.28 413.578C1212.46 440.8 1195.58 473.261 1183.67 510.925C1171.76 548.623 1165.82 589.891 1165.82 634.662C1165.82 680.033 1171.76 721.401 1183.67 758.832C1195.58 796.263 1212.43 828.556 1234.28 855.779C1256.09 883.002 1282.45 904.119 1313.34 919.132C1344.23 934.144 1378.95 941.684 1417.52 941.684C1462.85 941.684 1502.98 931.909 1537.84 912.36C1572.7 892.81 1600.89 864.62 1622.44 827.756L1548.45 778.448C1533.17 802.768 1515.29 821.184 1494.91 833.627Z" fill="white"/>
<path d="M1932.81 476.497C1909.56 476.497 1887.88 481.067 1867.76 490.242C1847.64 499.416 1831.9 512.293 1820.56 528.907V312.394L1732.12 358.298V932.276H1820.56V671.826C1820.56 635.629 1828.46 607.639 1844.24 587.823C1860.05 568.04 1882.6 558.131 1911.96 558.131C1940.75 558.131 1963.17 567.206 1979.25 585.287C1995.32 603.369 2003.36 635.062 2003.36 680.3V932.276H2091.8V676.297C2091.8 609.975 2078.32 560.1 2051.43 526.639C2024.48 493.211 1984.95 476.497 1932.81 476.497Z" fill="white"/>
<path d="M2259.29 314.929C2243.41 314.929 2229.97 320.467 2218.9 331.509C2207.85 342.552 2202.32 356.03 2202.32 371.909C2202.32 387.222 2207.82 400.4 2218.9 411.442C2229.94 422.485 2243.41 428.023 2259.29 428.023C2274.6 428.023 2287.78 422.485 2298.82 411.442C2309.9 400.4 2315.4 387.189 2315.4 371.909C2315.4 356.03 2309.87 342.585 2298.82 331.509C2287.78 320.467 2274.6 314.929 2259.29 314.929Z" fill="white"/>
<path d="M2303.53 485.838H2215.09V932.276H2303.53V485.838Z" fill="white"/>
<path d="M2630.88 476.497C2607.63 476.497 2585.94 481.068 2565.83 490.242C2545.71 499.416 2529.97 512.294 2518.62 528.907V485.838H2430.19V932.277H2518.62V671.826C2518.62 635.63 2526.53 607.64 2542.31 587.823C2558.12 568.04 2580.71 558.132 2610.03 558.132C2638.82 558.132 2661.23 567.206 2677.28 585.288C2693.36 603.369 2701.43 635.062 2701.43 680.3V932.277H2789.87V676.297C2789.87 609.975 2776.39 560.1 2749.47 526.639C2722.58 493.211 2683.05 476.497 2630.88 476.497Z" fill="white"/>
<path d="M3224.8 542.819C3209.22 522.402 3189.64 506.255 3166.12 494.345C3142.6 482.435 3114.95 476.497 3083.22 476.497C3054.3 476.497 3027.81 481.601 3003.69 491.81C2979.61 502.018 2959.09 516.897 2942.05 536.447C2925.03 555.997 2911.72 580.25 2902.08 609.141C2892.44 638.065 2887.64 671.526 2887.64 709.491C2887.64 746.355 2892.74 779.216 2902.95 808.14C2913.16 837.064 2927.04 861.418 2944.62 881.267C2962.2 901.117 2982.75 916.13 3006.26 926.338C3029.78 936.547 3054.57 941.651 3080.65 941.651C3114.65 941.651 3143.84 936.547 3168.22 926.338C3192.61 916.13 3214.69 901.684 3234.54 882.969L3182.67 826.855C3167.92 838.198 3152.78 847.006 3137.16 853.211C3121.55 859.449 3104.44 862.585 3085.72 862.585C3072.15 862.585 3059.07 860.183 3046.63 855.346C3034.15 850.542 3022.84 843.169 3012.64 833.227C3002.43 823.319 2993.92 810.675 2987.12 795.396C2980.31 780.083 2975.77 761.668 2973.54 740.117H3268.6C3269.16 735.579 3269.7 729.775 3270.3 722.702C3270.87 715.63 3271.13 708.123 3271.13 700.15C3271.13 670.092 3267.3 641.468 3259.66 614.245C3252.02 587.056 3240.38 563.236 3224.8 542.819ZM2975.24 667.823C2979.21 632.093 2989.85 604.47 3007.13 584.921C3024.41 565.371 3047.8 555.596 3077.28 555.596C3095.43 555.596 3110.88 558.565 3123.62 564.537C3136.4 570.475 3147 578.549 3155.51 588.757C3164.02 598.966 3170.39 610.876 3174.63 624.454C3178.86 638.065 3181.56 652.51 3182.7 667.823H2975.24Z" fill="white"/>
<path d="M3639.75 717.564C3627.01 706.522 3611.26 696.614 3592.55 687.806C3573.83 679.032 3552.01 669.825 3527.06 660.183C3510.05 653.378 3496.31 647.273 3485.83 641.901C3475.36 636.53 3466.98 631.259 3460.74 626.188C3454.47 621.084 3450.24 616.147 3448 611.309C3445.73 606.505 3444.6 601.268 3444.6 595.563C3444.6 583.653 3449.4 573.878 3459.04 566.238C3468.68 558.599 3484.26 554.762 3505.81 554.762C3527.33 554.762 3547.48 557.898 3566.16 564.103C3584.87 570.342 3603.29 579.983 3621.43 593.027L3659.66 525.838C3639.82 511.093 3616.73 499.183 3590.38 490.108C3564.02 481.034 3536.67 476.497 3508.31 476.497C3486.2 476.497 3465.78 479.032 3447.07 484.137C3428.35 489.241 3412.21 496.881 3398.63 507.089C3385.02 517.298 3374.51 530.042 3367.14 545.354C3359.77 560.667 3356.1 578.248 3356.1 598.065C3356.1 615.646 3358.37 631.092 3362.9 644.404C3367.44 657.715 3374.95 669.791 3385.45 680.534C3395.93 691.309 3409.57 701.384 3426.28 710.725C3443 720.066 3463.28 729.308 3487.1 738.348C3519.39 750.825 3544.74 762.168 3563.19 772.377C3581.6 782.585 3590.81 796.197 3590.81 813.177C3590.81 846.071 3563.59 862.518 3509.18 862.518C3488.2 862.518 3466.52 858.849 3444.13 851.476C3421.75 844.103 3400.03 833.061 3379.08 818.315L3339.12 884.637C3361.77 901.084 3388.29 914.695 3418.61 925.471C3448.94 936.213 3479.43 941.618 3510.02 941.618C3532.13 941.618 3553.25 939.349 3573.36 934.812C3593.48 930.275 3611.19 922.902 3626.47 912.693C3641.78 902.485 3654.13 889.041 3663.47 872.293C3672.84 855.579 3677.48 834.729 3677.48 809.808C3677.48 788.857 3674.34 770.976 3668.14 756.23C3661.97 741.518 3652.49 728.607 3639.75 717.564Z" fill="white"/>
<path d="M4091.26 542.819C4075.68 522.402 4056.13 506.255 4032.61 494.345C4009.06 482.435 3981.44 476.497 3949.68 476.497C3920.76 476.497 3894.28 481.601 3870.19 491.81C3846.11 502.018 3825.56 516.897 3808.54 536.447C3791.53 555.997 3778.22 580.25 3768.58 609.141C3758.94 638.065 3754.1 671.526 3754.1 709.491C3754.1 746.355 3759.21 779.216 3769.41 808.14C3779.62 837.064 3793.5 861.418 3811.08 881.267C3828.63 901.117 3849.17 916.13 3872.73 926.338C3896.24 936.547 3921.03 941.651 3947.12 941.651C3981.14 941.651 4010.33 936.547 4034.72 926.338C4059.07 916.13 4081.18 901.684 4101.03 882.969L4049.16 826.855C4034.42 838.198 4019.24 847.006 4003.66 853.211C3988.08 859.449 3970.93 862.585 3952.22 862.585C3938.64 862.585 3925.57 860.183 3913.12 855.346C3900.65 850.542 3889.3 843.169 3879.1 833.227C3868.89 823.319 3860.38 810.675 3853.58 795.396C3846.77 780.083 3842.24 761.668 3839.97 740.117H4135.03C4135.59 735.579 4136.16 729.775 4136.73 722.702C4137.29 715.63 4137.56 708.123 4137.56 700.15C4137.56 670.092 4133.76 641.468 4126.09 614.245C4118.45 587.056 4106.84 563.236 4091.26 542.819ZM3841.7 667.823C3845.64 632.093 3856.31 604.47 3873.59 584.921C3890.91 565.371 3914.26 555.596 3943.75 555.596C3961.89 555.596 3977.34 558.565 3990.08 564.537C4002.82 570.475 4013.47 578.549 4021.94 588.757C4030.45 598.966 4036.85 610.876 4041.09 624.454C4045.32 638.065 4048.03 652.51 4049.16 667.823H3841.7Z" fill="white"/>
<path d="M4639.28 384.22C4622.27 368.64 4601.98 356.864 4578.47 348.924C4554.95 340.984 4529.56 337.014 4502.37 337.014H4253.25V932.276H4341.68V710.325H4496.94C4525.76 710.325 4552.21 706.355 4576.23 698.415C4600.25 690.475 4621.03 678.565 4638.58 662.718C4656.09 646.838 4669.67 627.289 4679.28 604.036C4688.92 580.783 4693.72 553.861 4693.72 523.269C4693.72 492.643 4688.92 465.721 4679.28 442.468C4669.57 419.249 4656.26 399.833 4639.28 384.22ZM4577.26 598.932C4560.32 617.08 4534.87 626.154 4501.01 626.154H4341.65V421.217H4501.01C4532.06 421.217 4556.78 430.024 4575.16 447.572C4593.51 465.154 4602.68 490.375 4602.68 523.269C4602.68 555.562 4594.21 580.817 4577.26 598.932Z" fill="white"/>
<path d="M5092.89 539.416C5075.04 519.566 5053.93 504.12 5029.54 493.078C5005.16 482.035 4978.8 476.497 4950.48 476.497C4922.13 476.497 4895.91 481.735 4871.82 492.21C4847.74 502.719 4826.75 517.998 4808.91 538.148C4791.06 558.265 4777.05 582.786 4766.84 611.71C4756.63 640.634 4751.53 673.228 4751.53 709.491C4751.53 744.654 4756.5 776.38 4766.44 804.737C4776.35 833.094 4790.09 857.448 4807.67 877.865C4825.25 898.282 4845.94 913.995 4869.75 925.071C4893.54 936.113 4919.63 941.651 4947.98 941.651C4976.9 941.651 5003.52 936.413 5027.88 925.938C5052.26 915.429 5073.51 900.15 5091.66 880C5109.8 859.883 5123.98 835.229 5134.19 806.005C5144.4 776.814 5149.5 743.786 5149.5 706.956C5149.5 672.394 5144.53 640.767 5134.59 612.143C5124.62 583.52 5110.77 559.266 5092.89 539.416ZM5053.36 767.306C5048.26 785.454 5040.89 801.167 5031.24 814.512C5021.6 827.823 5010 838.465 4996.38 846.405C4982.81 854.345 4967.76 858.315 4951.32 858.315C4917.89 858.315 4890.97 845.404 4870.56 819.616C4850.14 793.828 4839.93 756.263 4839.93 706.956C4839.93 662.752 4849.41 627.156 4868.42 600.233C4887.4 573.311 4913.62 559.833 4947.08 559.833C4982.81 559.833 5010.7 573.311 5030.84 600.233C5050.96 627.156 5061.03 663.586 5061.03 709.491C5061 729.908 5058.43 749.191 5053.36 767.306Z" fill="white"/>
<path d="M5520.15 528.04C5507.68 514.295 5491.53 502.252 5471.71 491.943C5451.87 481.634 5430.58 476.464 5407.93 476.464C5384.68 476.464 5362.43 481.001 5341.18 490.075C5319.93 499.149 5301.22 513.027 5285.07 531.743C5268.93 550.458 5256.02 573.978 5246.38 602.335C5236.73 630.692 5231.93 663.853 5231.93 701.818C5231.93 744.353 5236.3 780.784 5245.11 811.109C5253.88 841.434 5266.06 866.255 5281.67 885.504C5297.28 904.787 5315.56 918.965 5336.51 928.039C5357.49 937.114 5379.88 941.651 5403.7 941.651C5427.48 941.651 5448.73 936.647 5467.44 926.605C5486.16 916.597 5503.74 904.12 5520.15 889.207V932.276H5606.88V312.394L5520.15 357.565V528.04V528.04ZM5520.99 803.336C5509.71 817.981 5495.3 831.092 5477.82 842.668C5460.34 854.211 5441.12 859.983 5420.27 859.983C5388.08 859.983 5363.4 847.306 5346.19 821.918C5328.97 796.563 5320.37 755.696 5320.37 699.316C5320.37 651.976 5328.57 616.58 5344.92 593.194C5361.3 569.808 5385.28 558.098 5416.91 558.098C5427.65 558.098 5438.22 559.933 5448.66 563.603C5459.1 567.272 5468.85 571.91 5477.89 577.548C5486.93 583.186 5495.1 589.391 5502.44 596.163C5509.78 602.935 5516.01 609.708 5521.09 616.447V803.336H5520.99Z" fill="white"/>
<path d="M515.193 338.715C582.645 338.715 637.32 284.037 637.32 216.58C637.32 149.124 582.645 94.4453 515.193 94.4453C447.742 94.4453 393.066 149.124 393.066 216.58C393.066 284.07 447.742 338.715 515.193 338.715Z" fill="#E1001E"/>
<path d="M946.39 233.194C942.353 229.157 935.881 229.19 931.812 233.194C922.004 243.202 788.836 415.712 513.425 393.127C350.901 379.782 151.082 274.528 97.8077 232.593C93.7713 229.224 87.7667 229.391 83.9638 233.194C79.9274 237.23 79.9274 243.736 83.9638 247.773C84.0973 247.906 297.193 447.239 297.193 656.613C297.193 881.133 121.092 1035.16 83.5635 1081.63C79.9941 1085.67 80.0942 1091.84 83.9638 1095.71C87.233 1098.98 92.1368 1099.55 96.0397 1097.48C515.027 881.7 731.892 664.219 948.158 245.27C950.226 241.367 949.659 236.463 946.39 233.194Z" fill="white"/>
<path d="M949.092 1085.77C913.131 963.736 830.268 795.896 723.72 679.299C662.606 751.826 597.156 817.414 524.768 878.598C661.339 887.739 830.935 946.621 930.511 1093.98C930.878 1094.54 931.312 1095.08 931.845 1095.58C935.882 1099.62 942.387 1099.62 946.423 1095.58C949.092 1092.91 949.959 1089.17 949.092 1085.77Z" fill="#E1001E"/>
</svg>
